<?xml version="1.0" encoding="UTF-8" standalone="no"?><svg xmlns="http://www.w3.org/2000/svg" xmlns:xlink="http://www.w3.org/1999/xlink" contentStyleType="text/css" height="802px" preserveAspectRatio="none" style="width:741px;height:802px;background:#FFFFFF;" version="1.1" viewBox="0 0 741 802" width="741px" zoomAndPan="magnify"><defs/><g><!--MD5=[4d94ef589ea4e6d49ac79f16ccd71851]
class Portefeuille--><g id="elem_Portefeuille"><rect codeLine="4" fill="#F1F1F1" height="92.8281" id="Portefeuille" rx="2.5" ry="2.5" style="stroke:#181818;stroke-width:0.5;" width="200" x="69.5" y="501.5"/><ellipse cx="129.75" cy="517.5" fill="#ADD1B2" rx="11" ry="11" style="stroke:#181818;stroke-width:1.0;"/><path d="M132.5156,513.375 Q132.6719,513.1563 132.8594,513.0469 Q133.0469,512.9375 133.2656,512.9375 Q133.6406,512.9375 133.875,513.1953 Q134.1094,513.4531 134.1094,514.0625 L134.1094,515.5156 Q134.1094,516.125 133.875,516.3906 Q133.6406,516.6563 133.2656,516.6563 Q132.9219,516.6563 132.7188,516.4531 Q132.5156,516.2656 132.4063,515.75 Q132.3594,515.3906 132.1719,515.2031 Q131.8438,514.8281 131.2344,514.6094 Q130.625,514.3906 130,514.3906 Q129.2344,514.3906 128.6016,514.7188 Q127.9688,515.0469 127.4766,515.7969 Q126.9844,516.5469 126.9844,517.5781 L126.9844,518.6719 Q126.9844,519.9063 127.875,520.7266 Q128.7656,521.5469 130.3594,521.5469 Q131.2969,521.5469 131.9531,521.2969 Q132.3438,521.1406 132.7656,520.7031 Q133.0313,520.4375 133.1797,520.3594 Q133.3281,520.2813 133.5313,520.2813 Q133.8594,520.2813 134.1172,520.5391 Q134.375,520.7969 134.375,521.1406 Q134.375,521.4844 134.0313,521.8906 Q133.5313,522.4688 132.7344,522.7969 Q131.6563,523.25 130.3594,523.25 Q128.8438,523.25 127.6406,522.625 Q126.6563,522.125 125.9688,521.0547 Q125.2813,519.9844 125.2813,518.7031 L125.2813,517.5469 Q125.2813,516.2188 125.8984,515.0703 Q126.5156,513.9219 127.6094,513.3047 Q128.7031,512.6875 129.9375,512.6875 Q130.6719,512.6875 131.3203,512.8516 Q131.9688,513.0156 132.5156,513.375 Z " fill="#000000"/><text fill="#000000" font-family="sans-serif" font-size="14" lengthAdjust="spacing" textLength="71" x="150.25" y="523.2285">Portefeuille</text><line style="stroke:#181818;stroke-width:0.5;" x1="70.5" x2="268.5" y1="533.5" y2="533.5"/><ellipse cx="80.5" cy="547.8047" fill="#84BE84" rx="3" ry="3" style="stroke:#038048;stroke-width:1.0;"/><text fill="#000000" font-family="sans-serif" font-size="14" lengthAdjust="spacing" textLength="92" x="89.5" y="552.0332">acheterAction(</text><text fill="#428ECD" font-family="sans-serif" font-size="14" lengthAdjust="spacing" textLength="39" x="181.5" y="552.0332">Action</text><text fill="#000000" font-family="sans-serif" font-size="14" lengthAdjust="spacing" textLength="13" x="220.5" y="552.0332">) :</text><text fill="#008000" font-family="sans-serif" font-size="14" lengthAdjust="spacing" textLength="26" x="237.5" y="552.0332">void</text><ellipse cx="80.5" cy="565.4141" fill="#84BE84" rx="3" ry="3" style="stroke:#038048;stroke-width:1.0;"/><text fill="#000000" font-family="sans-serif" font-size="14" lengthAdjust="spacing" textLength="88" x="89.5" y="569.6426">vendreAction(</text><text fill="#428ECD" font-family="sans-serif" font-size="14" lengthAdjust="spacing" textLength="39" x="177.5" y="569.6426">Action</text><text fill="#000000" font-family="sans-serif" font-size="14" lengthAdjust="spacing" textLength="13" x="216.5" y="569.6426">) :</text><text fill="#008000" font-family="sans-serif" font-size="14" lengthAdjust="spacing" textLength="26" x="233.5" y="569.6426">void</text><ellipse cx="80.5" cy="583.0234" fill="#84BE84" rx="3" ry="3" style="stroke:#038048;stroke-width:1.0;"/><text fill="#000000" font-family="sans-serif" font-size="14" lengthAdjust="spacing" textLength="61" x="89.5" y="587.252">getValue(</text><text fill="#D2453F" font-family="sans-serif" font-size="14" lengthAdjust="spacing" textLength="15" x="150.5" y="587.252">int</text><text fill="#000000" font-family="sans-serif" font-size="14" lengthAdjust="spacing" textLength="4" x="165.5" y="587.252">,</text><text fill="#D2453F" font-family="sans-serif" font-size="14" lengthAdjust="spacing" textLength="15" x="173.5" y="587.252">int</text><text fill="#000000" font-family="sans-serif" font-size="14" lengthAdjust="spacing" textLength="13" x="188.5" y="587.252">) :</text><text fill="#D2453F" font-family="sans-serif" font-size="14" lengthAdjust="spacing" textLength="27" x="205.5" y="587.252">float</text></g><!--MD5=[f8e7078f77c005d15b486c0c98deb1e6]
class Action--><g id="elem_Action"><rect codeLine="10" fill="#F1F1F1" height="136.0469" id="Action" rx="2.5" ry="2.5" style="stroke:#181818;stroke-width:0.5;" width="182" x="343.5" y="480"/><ellipse cx="410.75" cy="496" fill="#A9DCDF" rx="11" ry="11" style="stroke:#181818;stroke-width:1.0;"/><path d="M412.9375,497.7656 L408.7969,497.7656 L408.375,498.7969 L408.7969,498.7969 Q409.4063,498.7969 409.6719,499.0313 Q409.9375,499.2656 409.9375,499.6563 Q409.9375,500.0313 409.6719,500.2656 Q409.4063,500.5 408.7969,500.5 L406.5,500.5 Q405.8906,500.5 405.6328,500.2656 Q405.375,500.0313 405.375,499.6406 Q405.375,499.2656 405.6484,499.0234 Q405.9219,498.7813 406.5469,498.7969 L409.2188,492.1406 L408.1094,492.1406 Q407.5,492.1406 407.2344,491.9063 Q406.9688,491.6719 406.9688,491.2813 Q406.9688,490.9063 407.2344,490.6719 Q407.5,490.4375 408.1094,490.4375 L411.7813,490.4375 L415.1719,498.7969 Q415.7656,498.7969 415.9531,498.9375 Q416.3438,499.2031 416.3438,499.6563 Q416.3438,500.0313 416.0859,500.2656 Q415.8281,500.5 415.2188,500.5 L412.9219,500.5 Q412.3125,500.5 412.0469,500.2656 Q411.7813,500.0313 411.7813,499.6406 Q411.7813,499.2656 412.0469,499.0313 Q412.3125,498.7969 412.9219,498.7969 L413.3438,498.7969 L412.9375,497.7656 Z M412.2188,496.0625 L410.8594,492.6875 L409.4844,496.0625 L412.2188,496.0625 Z " fill="#000000"/><text fill="#000000" font-family="sans-serif" font-size="14" font-style="italic" lengthAdjust="spacing" textLength="39" x="431.25" y="501.7285">Action</text><line style="stroke:#181818;stroke-width:0.5;" x1="344.5" x2="524.5" y1="512" y2="512"/><polygon fill="none" points="354.5,521.3047,358.5,525.3047,354.5,529.3047,350.5,525.3047" style="stroke:#B38D22;stroke-width:1.0;"/><text fill="#000000" font-family="sans-serif" font-size="14" lengthAdjust="spacing" textLength="44" x="363.5" y="530.5332">libelle :</text><text fill="#428ECD" font-family="sans-serif" font-size="14" lengthAdjust="spacing" textLength="37" x="411.5" y="530.5332">String</text><line style="stroke:#181818;stroke-width:0.5;" x1="344.5" x2="524.5" y1="537.6094" y2="537.6094"/><ellipse cx="354.5" cy="551.9141" fill="#84BE84" rx="3" ry="3" style="stroke:#038048;stroke-width:1.0;"/><text fill="#000000" font-family="sans-serif" font-size="14" lengthAdjust="spacing" textLength="44" x="363.5" y="556.1426">Action(</text><text fill="#428ECD" font-family="sans-serif" font-size="14" lengthAdjust="spacing" textLength="37" x="407.5" y="556.1426">String</text><text fill="#000000" font-family="sans-serif" font-size="14" lengthAdjust="spacing" textLength="5" x="444.5" y="556.1426">)</text><ellipse cx="354.5" cy="569.5234" fill="#84BE84" rx="3" ry="3" style="stroke:#038048;stroke-width:1.0;"/><text fill="#000000" font-family="sans-serif" font-size="14" font-style="italic" lengthAdjust="spacing" textLength="61" x="363.5" y="573.752">getValue(</text><text fill="#D2453F" font-family="sans-serif" font-size="14" font-style="italic" lengthAdjust="spacing" textLength="15" x="424.5" y="573.752">int</text><text fill="#000000" font-family="sans-serif" font-size="14" font-style="italic" lengthAdjust="spacing" textLength="4" x="439.5" y="573.752">,</text><text fill="#D2453F" font-family="sans-serif" font-size="14" font-style="italic" lengthAdjust="spacing" textLength="15" x="447.5" y="573.752">int</text><text fill="#000000" font-family="sans-serif" font-size="14" font-style="italic" lengthAdjust="spacing" textLength="13" x="462.5" y="573.752">) :</text><text fill="#D2453F" font-family="sans-serif" font-size="14" font-style="italic" lengthAdjust="spacing" textLength="27" x="479.5" y="573.752">float</text><ellipse cx="354.5" cy="587.1328" fill="#84BE84" rx="3" ry="3" style="stroke:#038048;stroke-width:1.0;"/><text fill="#000000" font-family="sans-serif" font-size="14" lengthAdjust="spacing" textLength="47" x="363.5" y="591.3613">equals(</text><text fill="#428ECD" font-family="sans-serif" font-size="14" lengthAdjust="spacing" textLength="41" x="410.5" y="591.3613">Object</text><text fill="#000000" font-family="sans-serif" font-size="14" lengthAdjust="spacing" textLength="13" x="451.5" y="591.3613">) :</text><text fill="#D2453F" font-family="sans-serif" font-size="14" lengthAdjust="spacing" textLength="51" x="468.5" y="591.3613">boolean</text><ellipse cx="354.5" cy="604.7422" fill="#84BE84" rx="3" ry="3" style="stroke:#038048;stroke-width:1.0;"/><text fill="#000000" font-family="sans-serif" font-size="14" lengthAdjust="spacing" textLength="83" x="363.5" y="608.9707">hashCode() :</text><text fill="#D2453F" font-family="sans-serif" font-size="14" lengthAdjust="spacing" textLength="15" x="450.5" y="608.9707">int</text></g><!--MD5=[f6edf60997924e693a9a5571eb281b8c]
class Cours--><g id="elem_Cours"><rect codeLine="18" fill="#F1F1F1" height="206.4844" id="Cours" rx="2.5" ry="2.5" style="stroke:#181818;stroke-width:0.5;" width="184" x="522.5" y="7"/><ellipse cx="591.25" cy="23" fill="#ADD1B2" rx="11" ry="11" style="stroke:#181818;stroke-width:1.0;"/><path d="M594.0156,18.875 Q594.1719,18.6563 594.3594,18.5469 Q594.5469,18.4375 594.7656,18.4375 Q595.1406,18.4375 595.375,18.6953 Q595.6094,18.9531 595.6094,19.5625 L595.6094,21.0156 Q595.6094,21.625 595.375,21.8906 Q595.1406,22.1563 594.7656,22.1563 Q594.4219,22.1563 594.2188,21.9531 Q594.0156,21.7656 593.9063,21.25 Q593.8594,20.8906 593.6719,20.7031 Q593.3438,20.3281 592.7344,20.1094 Q592.125,19.8906 591.5,19.8906 Q590.7344,19.8906 590.1016,20.2188 Q589.4688,20.5469 588.9766,21.2969 Q588.4844,22.0469 588.4844,23.0781 L588.4844,24.1719 Q588.4844,25.4063 589.375,26.2266 Q590.2656,27.0469 591.8594,27.0469 Q592.7969,27.0469 593.4531,26.7969 Q593.8438,26.6406 594.2656,26.2031 Q594.5313,25.9375 594.6797,25.8594 Q594.8281,25.7813 595.0313,25.7813 Q595.3594,25.7813 595.6172,26.0391 Q595.875,26.2969 595.875,26.6406 Q595.875,26.9844 595.5313,27.3906 Q595.0313,27.9688 594.2344,28.2969 Q593.1563,28.75 591.8594,28.75 Q590.3438,28.75 589.1406,28.125 Q588.1563,27.625 587.4688,26.5547 Q586.7813,25.4844 586.7813,24.2031 L586.7813,23.0469 Q586.7813,21.7188 587.3984,20.5703 Q588.0156,19.4219 589.1094,18.8047 Q590.2031,18.1875 591.4375,18.1875 Q592.1719,18.1875 592.8203,18.3516 Q593.4688,18.5156 594.0156,18.875 Z " fill="#000000"/><text fill="#000000" font-family="sans-serif" font-size="14" lengthAdjust="spacing" textLength="38" x="611.75" y="28.7285">Cours</text><line style="stroke:#181818;stroke-width:0.5;" x1="523.5" x2="705.5" y1="39" y2="39"/><rect fill="none" height="6" style="stroke:#C82930;stroke-width:1.0;" width="6" x="530.5" y="50.3047"/><text fill="#000000" font-family="sans-serif" font-size="14" lengthAdjust="spacing" textLength="47" x="542.5" y="57.5332">valeur :</text><text fill="#D2453F" font-family="sans-serif" font-size="14" lengthAdjust="spacing" textLength="27" x="593.5" y="57.5332">float</text><rect fill="none" height="6" style="stroke:#C82930;stroke-width:1.0;" width="6" x="530.5" y="67.9141"/><text fill="#000000" font-family="sans-serif" font-size="14" lengthAdjust="spacing" textLength="48" x="542.5" y="75.1426">annee :</text><text fill="#D2453F" font-family="sans-serif" font-size="14" lengthAdjust="spacing" textLength="15" x="594.5" y="75.1426">int</text><rect fill="none" height="6" style="stroke:#C82930;stroke-width:1.0;" width="6" x="530.5" y="85.5234"/><text fill="#000000" font-family="sans-serif" font-size="14" lengthAdjust="spacing" textLength="83" x="542.5" y="92.752">numeroJour :</text><text fill="#D2453F" font-family="sans-serif" font-size="14" lengthAdjust="spacing" textLength="15" x="629.5" y="92.752">int</text><line style="stroke:#181818;stroke-width:0.5;" x1="523.5" x2="705.5" y1="99.8281" y2="99.8281"/><ellipse cx="533.5" cy="114.1328" fill="#84BE84" rx="3" ry="3" style="stroke:#038048;stroke-width:1.0;"/><text fill="#000000" font-family="sans-serif" font-size="14" lengthAdjust="spacing" textLength="43" x="542.5" y="118.3613">Cours(</text><text fill="#D2453F" font-family="sans-serif" font-size="14" lengthAdjust="spacing" textLength="27" x="585.5" y="118.3613">float</text><text fill="#000000" font-family="sans-serif" font-size="14" lengthAdjust="spacing" textLength="4" x="612.5" y="118.3613">,</text><text fill="#D2453F" font-family="sans-serif" font-size="14" lengthAdjust="spacing" textLength="15" x="620.5" y="118.3613">int</text><text fill="#000000" font-family="sans-serif" font-size="14" lengthAdjust="spacing" textLength="4" x="635.5" y="118.3613">,</text><text fill="#D2453F" font-family="sans-serif" font-size="14" lengthAdjust="spacing" textLength="15" x="643.5" y="118.3613">int</text><text fill="#000000" font-family="sans-serif" font-size="14" lengthAdjust="spacing" textLength="5" x="658.5" y="118.3613">)</text><ellipse cx="533.5" cy="131.7422" fill="#84BE84" rx="3" ry="3" style="stroke:#038048;stroke-width:1.0;"/><text fill="#000000" font-family="sans-serif" font-size="14" lengthAdjust="spacing" textLength="79" x="542.5" y="135.9707">getValeur() :</text><text fill="#D2453F" font-family="sans-serif" font-size="14" lengthAdjust="spacing" textLength="27" x="625.5" y="135.9707">float</text><ellipse cx="533.5" cy="149.3516" fill="#84BE84" rx="3" ry="3" style="stroke:#038048;stroke-width:1.0;"/><text fill="#000000" font-family="sans-serif" font-size="14" lengthAdjust="spacing" textLength="79" x="542.5" y="153.5801">getAnnee() :</text><text fill="#D2453F" font-family="sans-serif" font-size="14" lengthAdjust="spacing" textLength="15" x="625.5" y="153.5801">int</text><ellipse cx="533.5" cy="166.9609" fill="#84BE84" rx="3" ry="3" style="stroke:#038048;stroke-width:1.0;"/><text fill="#000000" font-family="sans-serif" font-size="14" lengthAdjust="spacing" textLength="114" x="542.5" y="171.1895">getNumeroJour() :</text><text fill="#D2453F" font-family="sans-serif" font-size="14" lengthAdjust="spacing" textLength="15" x="660.5" y="171.1895">int</text><rect fill="#F24D5C" height="6" style="stroke:#C82930;stroke-width:1.0;" width="6" x="530.5" y="181.5703"/><text fill="#000000" font-family="sans-serif" font-size="14" lengthAdjust="spacing" textLength="100" x="542.5" y="188.7988">setNumeroJour(</text><text fill="#D2453F" font-family="sans-serif" font-size="14" lengthAdjust="spacing" textLength="15" x="642.5" y="188.7988">int</text><text fill="#000000" font-family="sans-serif" font-size="14" lengthAdjust="spacing" textLength="13" x="657.5" y="188.7988">) :</text><text fill="#008000" font-family="sans-serif" font-size="14" lengthAdjust="spacing" textLength="26" x="674.5" y="188.7988">void</text><rect fill="#F24D5C" height="6" style="stroke:#C82930;stroke-width:1.0;" width="6" x="530.5" y="199.1797"/><text fill="#000000" font-family="sans-serif" font-size="14" lengthAdjust="spacing" textLength="65" x="542.5" y="206.4082">setAnnee(</text><text fill="#D2453F" font-family="sans-serif" font-size="14" lengthAdjust="spacing" textLength="15" x="607.5" y="206.4082">int</text><text fill="#000000" font-family="sans-serif" font-size="14" lengthAdjust="spacing" textLength="13" x="622.5" y="206.4082">) :</text><text fill="#008000" font-family="sans-serif" font-size="14" lengthAdjust="spacing" textLength="26" x="639.5" y="206.4082">void</text></g><!--MD5=[bc7f45c3ed1ff41f509cd4fecea66193]
class Pourcentage--><g id="elem_Pourcentage"><rect codeLine="30" fill="#F1F1F1" height="118.4375" id="Pourcentage" rx="2.5" ry="2.5" style="stroke:#181818;stroke-width:0.5;" width="165" x="322" y="51"/><ellipse cx="360.4" cy="67" fill="#ADD1B2" rx="11" ry="11" style="stroke:#181818;stroke-width:1.0;"/><path d="M363.1656,62.875 Q363.3219,62.6563 363.5094,62.5469 Q363.6969,62.4375 363.9156,62.4375 Q364.2906,62.4375 364.525,62.6953 Q364.7594,62.9531 364.7594,63.5625 L364.7594,65.0156 Q364.7594,65.625 364.525,65.8906 Q364.2906,66.1563 363.9156,66.1563 Q363.5719,66.1563 363.3688,65.9531 Q363.1656,65.7656 363.0563,65.25 Q363.0094,64.8906 362.8219,64.7031 Q362.4938,64.3281 361.8844,64.1094 Q361.275,63.8906 360.65,63.8906 Q359.8844,63.8906 359.2516,64.2188 Q358.6188,64.5469 358.1266,65.2969 Q357.6344,66.0469 357.6344,67.0781 L357.6344,68.1719 Q357.6344,69.4063 358.525,70.2266 Q359.4156,71.0469 361.0094,71.0469 Q361.9469,71.0469 362.6031,70.7969 Q362.9938,70.6406 363.4156,70.2031 Q363.6813,69.9375 363.8297,69.8594 Q363.9781,69.7813 364.1813,69.7813 Q364.5094,69.7813 364.7672,70.0391 Q365.025,70.2969 365.025,70.6406 Q365.025,70.9844 364.6813,71.3906 Q364.1813,71.9688 363.3844,72.2969 Q362.3063,72.75 361.0094,72.75 Q359.4938,72.75 358.2906,72.125 Q357.3063,71.625 356.6188,70.5547 Q355.9313,69.4844 355.9313,68.2031 L355.9313,67.0469 Q355.9313,65.7188 356.5484,64.5703 Q357.1656,63.4219 358.2594,62.8047 Q359.3531,62.1875 360.5875,62.1875 Q361.3219,62.1875 361.9703,62.3516 Q362.6188,62.5156 363.1656,62.875 Z " fill="#000000"/><text fill="#000000" font-family="sans-serif" font-size="14" lengthAdjust="spacing" textLength="81" x="379.6" y="72.7285">Pourcentage</text><line style="stroke:#181818;stroke-width:0.5;" x1="323" x2="486" y1="83" y2="83"/><rect fill="none" height="6" style="stroke:#C82930;stroke-width:1.0;" width="6" x="330" y="94.3047"/><text fill="#000000" font-family="sans-serif" font-size="14" lengthAdjust="spacing" textLength="52" x="342" y="101.5332">portion :</text><text fill="#D2453F" font-family="sans-serif" font-size="14" lengthAdjust="spacing" textLength="27" x="398" y="101.5332">float</text><line style="stroke:#181818;stroke-width:0.5;" x1="323" x2="486" y1="108.6094" y2="108.6094"/><ellipse cx="333" cy="122.9141" fill="#84BE84" rx="3" ry="3" style="stroke:#038048;stroke-width:1.0;"/><text fill="#000000" font-family="sans-serif" font-size="14" lengthAdjust="spacing" textLength="86" x="342" y="127.1426">Pourcentage(</text><text fill="#D2453F" font-family="sans-serif" font-size="14" lengthAdjust="spacing" textLength="27" x="428" y="127.1426">float</text><text fill="#000000" font-family="sans-serif" font-size="14" lengthAdjust="spacing" textLength="5" x="455" y="127.1426">)</text><ellipse cx="333" cy="140.5234" fill="#84BE84" rx="3" ry="3" style="stroke:#038048;stroke-width:1.0;"/><text fill="#000000" font-family="sans-serif" font-size="14" lengthAdjust="spacing" textLength="83" x="342" y="144.752">getPortion() :</text><text fill="#D2453F" font-family="sans-serif" font-size="14" lengthAdjust="spacing" textLength="27" x="429" y="144.752">float</text><ellipse cx="333" cy="158.1328" fill="#84BE84" rx="3" ry="3" style="stroke:#038048;stroke-width:1.0;"/><text fill="#000000" font-family="sans-serif" font-size="14" lengthAdjust="spacing" textLength="69" x="342" y="162.3613">setPortion(</text><text fill="#D2453F" font-family="sans-serif" font-size="14" lengthAdjust="spacing" textLength="27" x="411" y="162.3613">float</text><text fill="#000000" font-family="sans-serif" font-size="14" lengthAdjust="spacing" textLength="13" x="438" y="162.3613">) :</text><text fill="#008000" font-family="sans-serif" font-size="14" lengthAdjust="spacing" textLength="26" x="455" y="162.3613">void</text></g><!--MD5=[7bc4f33146223f7cab4c068eb52750be]
class Quantite--><g id="elem_Quantite"><rect codeLine="37" fill="#F1F1F1" height="118.4375" id="Quantite" rx="2.5" ry="2.5" style="stroke:#181818;stroke-width:0.5;" width="208" x="202.5" y="677"/><ellipse cx="275.25" cy="693" fill="#ADD1B2" rx="11" ry="11" style="stroke:#181818;stroke-width:1.0;"/><path d="M278.0156,688.875 Q278.1719,688.6563 278.3594,688.5469 Q278.5469,688.4375 278.7656,688.4375 Q279.1406,688.4375 279.375,688.6953 Q279.6094,688.9531 279.6094,689.5625 L279.6094,691.0156 Q279.6094,691.625 279.375,691.8906 Q279.1406,692.1563 278.7656,692.1563 Q278.4219,692.1563 278.2188,691.9531 Q278.0156,691.7656 277.9063,691.25 Q277.8594,690.8906 277.6719,690.7031 Q277.3438,690.3281 276.7344,690.1094 Q276.125,689.8906 275.5,689.8906 Q274.7344,689.8906 274.1016,690.2188 Q273.4688,690.5469 272.9766,691.2969 Q272.4844,692.0469 272.4844,693.0781 L272.4844,694.1719 Q272.4844,695.4063 273.375,696.2266 Q274.2656,697.0469 275.8594,697.0469 Q276.7969,697.0469 277.4531,696.7969 Q277.8438,696.6406 278.2656,696.2031 Q278.5313,695.9375 278.6797,695.8594 Q278.8281,695.7813 279.0313,695.7813 Q279.3594,695.7813 279.6172,696.0391 Q279.875,696.2969 279.875,696.6406 Q279.875,696.9844 279.5313,697.3906 Q279.0313,697.9688 278.2344,698.2969 Q277.1563,698.75 275.8594,698.75 Q274.3438,698.75 273.1406,698.125 Q272.1563,697.625 271.4688,696.5547 Q270.7813,695.4844 270.7813,694.2031 L270.7813,693.0469 Q270.7813,691.7188 271.3984,690.5703 Q272.0156,689.4219 273.1094,688.8047 Q274.2031,688.1875 275.4375,688.1875 Q276.1719,688.1875 276.8203,688.3516 Q277.4688,688.5156 278.0156,688.875 Z " fill="#000000"/><text fill="#000000" font-family="sans-serif" font-size="14" lengthAdjust="spacing" textLength="54" x="295.75" y="698.7285">Quantite</text><line style="stroke:#181818;stroke-width:0.5;" x1="203.5" x2="409.5" y1="709" y2="709"/><rect fill="none" height="6" style="stroke:#C82930;stroke-width:1.0;" width="6" x="210.5" y="720.3047"/><text fill="#000000" font-family="sans-serif" font-size="14" lengthAdjust="spacing" textLength="105" x="222.5" y="727.5332">quantiteActions :</text><text fill="#D2453F" font-family="sans-serif" font-size="14" lengthAdjust="spacing" textLength="15" x="331.5" y="727.5332">int</text><line style="stroke:#181818;stroke-width:0.5;" x1="203.5" x2="409.5" y1="734.6094" y2="734.6094"/><ellipse cx="213.5" cy="748.9141" fill="#84BE84" rx="3" ry="3" style="stroke:#038048;stroke-width:1.0;"/><text fill="#000000" font-family="sans-serif" font-size="14" lengthAdjust="spacing" textLength="59" x="222.5" y="753.1426">Quantite(</text><text fill="#D2453F" font-family="sans-serif" font-size="14" lengthAdjust="spacing" textLength="15" x="281.5" y="753.1426">int</text><text fill="#000000" font-family="sans-serif" font-size="14" lengthAdjust="spacing" textLength="5" x="296.5" y="753.1426">)</text><ellipse cx="213.5" cy="766.5234" fill="#84BE84" rx="3" ry="3" style="stroke:#038048;stroke-width:1.0;"/><text fill="#000000" font-family="sans-serif" font-size="14" lengthAdjust="spacing" textLength="124" x="222.5" y="770.752">setQuantiteActions(</text><text fill="#D2453F" font-family="sans-serif" font-size="14" lengthAdjust="spacing" textLength="15" x="346.5" y="770.752">int</text><text fill="#000000" font-family="sans-serif" font-size="14" lengthAdjust="spacing" textLength="13" x="361.5" y="770.752">) :</text><text fill="#008000" font-family="sans-serif" font-size="14" lengthAdjust="spacing" textLength="26" x="378.5" y="770.752">void</text><ellipse cx="213.5" cy="784.1328" fill="#84BE84" rx="3" ry="3" style="stroke:#038048;stroke-width:1.0;"/><text fill="#000000" font-family="sans-serif" font-size="14" lengthAdjust="spacing" textLength="138" x="222.5" y="788.3613">getQuantiteActions() :</text><text fill="#D2453F" font-family="sans-serif" font-size="14" lengthAdjust="spacing" textLength="15" x="364.5" y="788.3613">int</text></g><!--MD5=[a66b9babebe940fde99249083f29474d]
class ActionComposee--><g id="elem_ActionComposee"><rect codeLine="44" fill="#F1F1F1" height="128.0469" id="ActionComposee" rx="2.5" ry="2.5" style="stroke:#181818;stroke-width:0.5;" width="391" x="7" y="291"/><ellipse cx="144.75" cy="307" fill="#ADD1B2" rx="11" ry="11" style="stroke:#181818;stroke-width:1.0;"/><path d="M147.5156,302.875 Q147.6719,302.6563 147.8594,302.5469 Q148.0469,302.4375 148.2656,302.4375 Q148.6406,302.4375 148.875,302.6953 Q149.1094,302.9531 149.1094,303.5625 L149.1094,305.0156 Q149.1094,305.625 148.875,305.8906 Q148.6406,306.1563 148.2656,306.1563 Q147.9219,306.1563 147.7188,305.9531 Q147.5156,305.7656 147.4063,305.25 Q147.3594,304.8906 147.1719,304.7031 Q146.8438,304.3281 146.2344,304.1094 Q145.625,303.8906 145,303.8906 Q144.2344,303.8906 143.6016,304.2188 Q142.9688,304.5469 142.4766,305.2969 Q141.9844,306.0469 141.9844,307.0781 L141.9844,308.1719 Q141.9844,309.4063 142.875,310.2266 Q143.7656,311.0469 145.3594,311.0469 Q146.2969,311.0469 146.9531,310.7969 Q147.3438,310.6406 147.7656,310.2031 Q148.0313,309.9375 148.1797,309.8594 Q148.3281,309.7813 148.5313,309.7813 Q148.8594,309.7813 149.1172,310.0391 Q149.375,310.2969 149.375,310.6406 Q149.375,310.9844 149.0313,311.3906 Q148.5313,311.9688 147.7344,312.2969 Q146.6563,312.75 145.3594,312.75 Q143.8438,312.75 142.6406,312.125 Q141.6563,311.625 140.9688,310.5547 Q140.2813,309.4844 140.2813,308.2031 L140.2813,307.0469 Q140.2813,305.7188 140.8984,304.5703 Q141.5156,303.4219 142.6094,302.8047 Q143.7031,302.1875 144.9375,302.1875 Q145.6719,302.1875 146.3203,302.3516 Q146.9688,302.5156 147.5156,302.875 Z " fill="#000000"/><text fill="#000000" font-family="sans-serif" font-size="14" lengthAdjust="spacing" textLength="107" x="165.25" y="312.7285">ActionComposee</text><line style="stroke:#181818;stroke-width:0.5;" x1="8" x2="397" y1="323" y2="323"/><ellipse cx="18" cy="337.3047" fill="#84BE84" rx="3" ry="3" style="stroke:#038048;stroke-width:1.0;"/><text fill="#000000" font-family="sans-serif" font-size="14" lengthAdjust="spacing" textLength="112" x="27" y="341.5332">ActionComposee(</text><text fill="#428ECD" font-family="sans-serif" font-size="14" lengthAdjust="spacing" textLength="37" x="139" y="341.5332">String</text><text fill="#000000" font-family="sans-serif" font-size="14" lengthAdjust="spacing" textLength="5" x="176" y="341.5332">)</text><ellipse cx="18" cy="354.9141" fill="#84BE84" rx="3" ry="3" style="stroke:#038048;stroke-width:1.0;"/><text fill="#000000" font-family="sans-serif" font-size="14" lengthAdjust="spacing" textLength="152" x="27" y="359.1426">enregistrerComposition(</text><text fill="#428ECD" font-family="sans-serif" font-size="14" lengthAdjust="spacing" textLength="81" x="179" y="359.1426">ActionSimple</text><text fill="#000000" font-family="sans-serif" font-size="14" lengthAdjust="spacing" textLength="4" x="260" y="359.1426">,</text><text fill="#428ECD" font-family="sans-serif" font-size="14" lengthAdjust="spacing" textLength="81" x="268" y="359.1426">Pourcentage</text><text fill="#000000" font-family="sans-serif" font-size="14" lengthAdjust="spacing" textLength="13" x="349" y="359.1426">) :</text><text fill="#008000" font-family="sans-serif" font-size="14" lengthAdjust="spacing" textLength="26" x="366" y="359.1426">void</text><ellipse cx="18" cy="372.5234" fill="#84BE84" rx="3" ry="3" style="stroke:#038048;stroke-width:1.0;"/><text fill="#000000" font-family="sans-serif" font-size="14" lengthAdjust="spacing" textLength="61" x="27" y="376.752">getValue(</text><text fill="#D2453F" font-family="sans-serif" font-size="14" lengthAdjust="spacing" textLength="15" x="88" y="376.752">int</text><text fill="#000000" font-family="sans-serif" font-size="14" lengthAdjust="spacing" textLength="4" x="103" y="376.752">,</text><text fill="#D2453F" font-family="sans-serif" font-size="14" lengthAdjust="spacing" textLength="15" x="111" y="376.752">int</text><text fill="#000000" font-family="sans-serif" font-size="14" lengthAdjust="spacing" textLength="13" x="126" y="376.752">) :</text><text fill="#D2453F" font-family="sans-serif" font-size="14" lengthAdjust="spacing" textLength="27" x="143" y="376.752">float</text><ellipse cx="18" cy="390.1328" fill="#84BE84" rx="3" ry="3" style="stroke:#038048;stroke-width:1.0;"/><text fill="#000000" font-family="sans-serif" font-size="14" lengthAdjust="spacing" textLength="47" x="27" y="394.3613">equals(</text><text fill="#428ECD" font-family="sans-serif" font-size="14" lengthAdjust="spacing" textLength="41" x="74" y="394.3613">Object</text><text fill="#000000" font-family="sans-serif" font-size="14" lengthAdjust="spacing" textLength="13" x="115" y="394.3613">) :</text><text fill="#D2453F" font-family="sans-serif" font-size="14" lengthAdjust="spacing" textLength="51" x="132" y="394.3613">boolean</text><ellipse cx="18" cy="407.7422" fill="#84BE84" rx="3" ry="3" style="stroke:#038048;stroke-width:1.0;"/><text fill="#000000" font-family="sans-serif" font-size="14" lengthAdjust="spacing" textLength="83" x="27" y="411.9707">hashCode() :</text><text fill="#D2453F" font-family="sans-serif" font-size="14" lengthAdjust="spacing" textLength="15" x="114" y="411.9707">int</text></g><!--MD5=[8a1845d81f4ceaa8f4aad5d07abc9229]
class ActionSimple--><g id="elem_ActionSimple"><rect codeLine="52" fill="#F1F1F1" height="128.0469" id="ActionSimple" rx="2.5" ry="2.5" style="stroke:#181818;stroke-width:0.5;" width="219" x="473" y="291"/><ellipse cx="537.75" cy="307" fill="#ADD1B2" rx="11" ry="11" style="stroke:#181818;stroke-width:1.0;"/><path d="M540.5156,302.875 Q540.6719,302.6563 540.8594,302.5469 Q541.0469,302.4375 541.2656,302.4375 Q541.6406,302.4375 541.875,302.6953 Q542.1094,302.9531 542.1094,303.5625 L542.1094,305.0156 Q542.1094,305.625 541.875,305.8906 Q541.6406,306.1563 541.2656,306.1563 Q540.9219,306.1563 540.7188,305.9531 Q540.5156,305.7656 540.4063,305.25 Q540.3594,304.8906 540.1719,304.7031 Q539.8438,304.3281 539.2344,304.1094 Q538.625,303.8906 538,303.8906 Q537.2344,303.8906 536.6016,304.2188 Q535.9688,304.5469 535.4766,305.2969 Q534.9844,306.0469 534.9844,307.0781 L534.9844,308.1719 Q534.9844,309.4063 535.875,310.2266 Q536.7656,311.0469 538.3594,311.0469 Q539.2969,311.0469 539.9531,310.7969 Q540.3438,310.6406 540.7656,310.2031 Q541.0313,309.9375 541.1797,309.8594 Q541.3281,309.7813 541.5313,309.7813 Q541.8594,309.7813 542.1172,310.0391 Q542.375,310.2969 542.375,310.6406 Q542.375,310.9844 542.0313,311.3906 Q541.5313,311.9688 540.7344,312.2969 Q539.6563,312.75 538.3594,312.75 Q536.8438,312.75 535.6406,312.125 Q534.6563,311.625 533.9688,310.5547 Q533.2813,309.4844 533.2813,308.2031 L533.2813,307.0469 Q533.2813,305.7188 533.8984,304.5703 Q534.5156,303.4219 535.6094,302.8047 Q536.7031,302.1875 537.9375,302.1875 Q538.6719,302.1875 539.3203,302.3516 Q539.9688,302.5156 540.5156,302.875 Z " fill="#000000"/><text fill="#000000" font-family="sans-serif" font-size="14" lengthAdjust="spacing" textLength="81" x="558.25" y="312.7285">ActionSimple</text><line style="stroke:#181818;stroke-width:0.5;" x1="474" x2="691" y1="323" y2="323"/><ellipse cx="484" cy="337.3047" fill="#84BE84" rx="3" ry="3" style="stroke:#038048;stroke-width:1.0;"/><text fill="#000000" font-family="sans-serif" font-size="14" lengthAdjust="spacing" textLength="86" x="493" y="341.5332">ActionSimple(</text><text fill="#428ECD" font-family="sans-serif" font-size="14" lengthAdjust="spacing" textLength="37" x="579" y="341.5332">String</text><text fill="#000000" font-family="sans-serif" font-size="14" lengthAdjust="spacing" textLength="5" x="616" y="341.5332">)</text><ellipse cx="484" cy="354.9141" fill="#84BE84" rx="3" ry="3" style="stroke:#038048;stroke-width:1.0;"/><text fill="#000000" font-family="sans-serif" font-size="14" lengthAdjust="spacing" textLength="112" x="493" y="359.1426">enregistrerCours(</text><text fill="#428ECD" font-family="sans-serif" font-size="14" lengthAdjust="spacing" textLength="38" x="605" y="359.1426">Cours</text><text fill="#000000" font-family="sans-serif" font-size="14" lengthAdjust="spacing" textLength="13" x="643" y="359.1426">) :</text><text fill="#008000" font-family="sans-serif" font-size="14" lengthAdjust="spacing" textLength="26" x="660" y="359.1426">void</text><ellipse cx="484" cy="372.5234" fill="#84BE84" rx="3" ry="3" style="stroke:#038048;stroke-width:1.0;"/><text fill="#000000" font-family="sans-serif" font-size="14" lengthAdjust="spacing" textLength="61" x="493" y="376.752">getValue(</text><text fill="#D2453F" font-family="sans-serif" font-size="14" lengthAdjust="spacing" textLength="15" x="554" y="376.752">int</text><text fill="#000000" font-family="sans-serif" font-size="14" lengthAdjust="spacing" textLength="4" x="569" y="376.752">,</text><text fill="#D2453F" font-family="sans-serif" font-size="14" lengthAdjust="spacing" textLength="15" x="577" y="376.752">int</text><text fill="#000000" font-family="sans-serif" font-size="14" lengthAdjust="spacing" textLength="13" x="592" y="376.752">) :</text><text fill="#D2453F" font-family="sans-serif" font-size="14" lengthAdjust="spacing" textLength="27" x="609" y="376.752">float</text><ellipse cx="484" cy="390.1328" fill="#84BE84" rx="3" ry="3" style="stroke:#038048;stroke-width:1.0;"/><text fill="#000000" font-family="sans-serif" font-size="14" lengthAdjust="spacing" textLength="47" x="493" y="394.3613">equals(</text><text fill="#428ECD" font-family="sans-serif" font-size="14" lengthAdjust="spacing" textLength="41" x="540" y="394.3613">Object</text><text fill="#000000" font-family="sans-serif" font-size="14" lengthAdjust="spacing" textLength="13" x="581" y="394.3613">) :</text><text fill="#D2453F" font-family="sans-serif" font-size="14" lengthAdjust="spacing" textLength="51" x="598" y="394.3613">boolean</text><ellipse cx="484" cy="407.7422" fill="#84BE84" rx="3" ry="3" style="stroke:#038048;stroke-width:1.0;"/><text fill="#000000" font-family="sans-serif" font-size="14" lengthAdjust="spacing" textLength="83" x="493" y="411.9707">hashCode() :</text><text fill="#D2453F" font-family="sans-serif" font-size="14" lengthAdjust="spacing" textLength="15" x="580" y="411.9707">int</text></g><ellipse cx="435.5" cy="355" fill="#000000" rx="2" ry="2" style="stroke:none;stroke-width:1.0;"/><ellipse cx="306.5" cy="548" fill="#000000" rx="2" ry="2" style="stroke:none;stroke-width:1.0;"/><!--MD5=[5171ae5db5a6a3d9fda810da8f025279]
reverse link Cours to ActionSimple--><g id="link_Cours_ActionSimple"><path codeLine="61" d="M600.33,218.61 C597.07,243.32 593.72,268.81 590.81,290.92 " fill="none" id="Cours-backto-ActionSimple" style="stroke:#181818;stroke-width:1.0;"/><polygon fill="#181818" points="601.02,213.35,595.872,221.7463,600.3629,218.3066,603.8026,222.7976,601.02,213.35" style="stroke:#181818;stroke-width:1.0;"/><text fill="#000000" font-family="sans-serif" font-size="13" lengthAdjust="spacing" textLength="61" x="597.5" y="257.4951">coursList :</text><text fill="#428ECD" font-family="sans-serif" font-size="13" lengthAdjust="spacing" textLength="21" x="662.5" y="257.4951">List</text><text fill="#000000" font-family="sans-serif" font-size="13" lengthAdjust="spacing" textLength="8" x="683.5" y="257.4951">&lt;</text><text fill="#F69C3E" font-family="sans-serif" font-size="13" lengthAdjust="spacing" textLength="34" x="691.5" y="257.4951">Cours</text><text fill="#000000" font-family="sans-serif" font-size="13" lengthAdjust="spacing" textLength="8" x="725.5" y="257.4951">&gt;</text><text fill="#000000" font-family="sans-serif" font-size="13" lengthAdjust="spacing" textLength="20" x="579.2957" y="235.0175">0..*</text><text fill="#000000" font-family="sans-serif" font-size="13" lengthAdjust="spacing" textLength="22" x="568.499" y="280.0985">1..1</text></g><!--MD5=[00e6a8f217f946db4de10cd4dcbe674e]
link ActionComposee to apoint14--><g id="link_ActionComposee_apoint14"><path d="M398.18,355 C409.94,355 421.7,355 433.46,355 " fill="none" id="ActionComposee-apoint14" style="stroke:#181818;stroke-width:1.0;"/><text fill="#000000" font-family="sans-serif" font-size="13" lengthAdjust="spacing" textLength="22" x="403.4594" y="350.9435">1..1</text></g><!--MD5=[65b0d9e894054dedab125285ccd75cb8]
link apoint14 to ActionSimple--><g id="link_apoint14_ActionSimple"><path d="M437.51,355 C447.56,355 457.61,355 467.65,355 " fill="none" id="apoint14-to-ActionSimple" style="stroke:#181818;stroke-width:1.0;"/><polygon fill="#181818" points="472.91,355,463.91,351,467.91,355,463.91,359,472.91,355" style="stroke:#181818;stroke-width:1.0;"/><text fill="#000000" font-family="sans-serif" font-size="13" lengthAdjust="spacing" textLength="20" x="445.5108" y="351.6938">0..*</text></g><!--MD5=[7d63446a68092d44348e561fedd28a4b]
link Pourcentage to apoint14--><g id="link_Pourcentage_apoint14"><path d="M411.93,169.2 C420.52,236.6 433.72,340.05 435.34,352.71 " fill="none" id="Pourcentage-apoint14" style="stroke:#181818;stroke-width:1.0;stroke-dasharray:7.0,7.0;"/></g><!--MD5=[dd45493d525358c40e4a40a6f3545819]
reverse link Portefeuille to apoint19--><g id="link_Portefeuille_apoint19"><path d="M274.76,548 C284.66,548 294.57,548 304.48,548 " fill="none" id="Portefeuille-backto-apoint19" style="stroke:#181818;stroke-width:1.0;"/><polygon fill="#181818" points="269.57,548,278.57,552,274.57,548,278.57,544,269.57,548" style="stroke:#181818;stroke-width:1.0;"/><text fill="#000000" font-family="sans-serif" font-size="13" lengthAdjust="spacing" textLength="20" x="276.5048" y="544.4154">0..*</text></g><!--MD5=[c8f7efdfd956e270ab61c24708aedaa4]
link apoint19 to Action--><g id="link_apoint19_Action"><path d="M308.5,548 C320.15,548 331.8,548 343.45,548 " fill="none" id="apoint19-Action" style="stroke:#181818;stroke-width:1.0;"/><text fill="#000000" font-family="sans-serif" font-size="13" lengthAdjust="spacing" textLength="22" x="316.5273" y="543.5515">1..1</text></g><!--MD5=[4520cdaf924dffeed0b76b8f2aad2d5f]
link apoint19 to Quantite--><g id="link_apoint19_Quantite"><path d="M306.5,550.19 C306.5,559.84 306.5,626.36 306.5,676.85 " fill="none" id="apoint19-Quantite" style="stroke:#181818;stroke-width:1.0;stroke-dasharray:7.0,7.0;"/></g><!--MD5=[f76ef1c9c3a1e9ed7a66041415bde573]
link ActionSimple to Action--><g id="link_ActionSimple_Action"><path codeLine="69" d="M533.63,419.07 C522.56,433.35 510.64,448.74 499.04,463.71 " fill="none" id="ActionSimple-to-Action" style="stroke:#181818;stroke-width:1.0;"/><polygon fill="none" points="504.41,468.21,486.63,479.73,493.34,459.63,504.41,468.21" style="stroke:#181818;stroke-width:1.0;"/></g><!--MD5=[04fbaf0fe1ca6d529a60012e6ab03713]
link ActionComposee to Action--><g id="link_ActionComposee_Action"><path codeLine="70" d="M279.11,419.07 C297.66,434.34 317.73,450.87 337.1,466.81 " fill="none" id="ActionComposee-to-Action" style="stroke:#181818;stroke-width:1.0;"/><polygon fill="none" points="341.8,461.61,352.79,479.73,332.9,472.42,341.8,461.61" style="stroke:#181818;stroke-width:1.0;"/></g><!--MD5=[6e2f1ce3f0bcceec088c0de669caeca9]
@startuml

!includeurl https://raw.githubusercontent.com/manuvai/plantuml-utils/master/class_diagram_utils.puml

class Portefeuille {
    +void("acheterAction(Action)")
    +void("vendreAction(Action)")
    +float("getValue(int, int)")
}

abstract Action {
    #string(libelle)
    +construct("Action(String)")
    +{abstract} float("getValue(int, int)")
    +boolean("equals(Object)")
    +int("hashCode()")
}

class Cours {
    -float(valeur)
    -int(annee)
    -int(numeroJour)
    +construct("Cours(float, int, int)")
    +float("getValeur()")
    +int("getAnnee()")
    +int("getNumeroJour()")
    -void("setNumeroJour(int)")
    -void("setAnnee(int)")
}

class Pourcentage {
    -float(portion)
    +construct("Pourcentage(float)")
    +float("getPortion()")
    +void("setPortion(float)")
}

class Quantite {
    -int(quantiteActions)
    +construct("Quantite(int)")
    +void("setQuantiteActions(int)")
    +int("getQuantiteActions()")
}

class ActionComposee {
    +construct("ActionComposee(String)")
    +void("enregistrerComposition(ActionSimple, Pourcentage)")
    +float("getValue(int, int)")
    +boolean("equals(Object)")
    +int("hashCode()")
}

class ActionSimple {
    +construct("ActionSimple(String)")
    +void("enregistrerCours(Cours)")
    +float("getValue(int, int)")
    +boolean("equals(Object)")
    +int("hashCode()")
}

Portefeuille "1..1" -left->  "0..*" Action 
ActionSimple "1..1" -up-> "0..*" Cours : list(Cours, coursList)

ActionComposee "1..1" - - -right- - -> "0..*" ActionSimple

Pourcentage .up. (ActionComposee, ActionSimple)

(Action, Portefeuille) .. Quantite

extends(ActionSimple, Action, down)
extends(ActionComposee, Action, down)

@enduml

@startuml


hide empty members
hide empty methods





















class Portefeuille {
    +acheterAction(<color:#428ecd>Action</color>) : <color:Green>void</color>
    +vendreAction(<color:#428ecd>Action</color>) : <color:Green>void</color>
    +getValue(<color:#d2453f>int</color>, <color:#d2453f>int</color>) : <color:#d2453f>float</color>
}

abstract Action {
    #libelle : <color:#428ecd>String</color>
    +Action(<color:#428ecd>String</color>)
    +{abstract} getValue(<color:#d2453f>int</color>, <color:#d2453f>int</color>) : <color:#d2453f>float</color>
    +equals(<color:#428ecd>Object</color>) : <color:#d2453f>boolean</color>
    +hashCode() : <color:#d2453f>int</color>
}

class Cours {
    -valeur : <color:#d2453f>float</color>
    -annee : <color:#d2453f>int</color>
    -numeroJour : <color:#d2453f>int</color>
    +Cours(<color:#d2453f>float</color>, <color:#d2453f>int</color>, <color:#d2453f>int</color>)
    +getValeur() : <color:#d2453f>float</color>
    +getAnnee() : <color:#d2453f>int</color>
    +getNumeroJour() : <color:#d2453f>int</color>
    -setNumeroJour(<color:#d2453f>int</color>) : <color:Green>void</color>
    -setAnnee(<color:#d2453f>int</color>) : <color:Green>void</color>
}

class Pourcentage {
    -portion : <color:#d2453f>float</color>
    +Pourcentage(<color:#d2453f>float</color>)
    +getPortion() : <color:#d2453f>float</color>
    +setPortion(<color:#d2453f>float</color>) : <color:Green>void</color>
}

class Quantite {
    -quantiteActions : <color:#d2453f>int</color>
    +Quantite(<color:#d2453f>int</color>)
    +setQuantiteActions(<color:#d2453f>int</color>) : <color:Green>void</color>
    +getQuantiteActions() : <color:#d2453f>int</color>
}

class ActionComposee {
    +ActionComposee(<color:#428ecd>String</color>)
    +enregistrerComposition(<color:#428ecd>ActionSimple</color>, <color:#428ecd>Pourcentage</color>) : <color:Green>void</color>
    +getValue(<color:#d2453f>int</color>, <color:#d2453f>int</color>) : <color:#d2453f>float</color>
    +equals(<color:#428ecd>Object</color>) : <color:#d2453f>boolean</color>
    +hashCode() : <color:#d2453f>int</color>
}

class ActionSimple {
    +ActionSimple(<color:#428ecd>String</color>)
    +enregistrerCours(<color:#428ecd>Cours</color>) : <color:Green>void</color>
    +getValue(<color:#d2453f>int</color>, <color:#d2453f>int</color>) : <color:#d2453f>float</color>
    +equals(<color:#428ecd>Object</color>) : <color:#d2453f>boolean</color>
    +hashCode() : <color:#d2453f>int</color>
}

Portefeuille "1..1" -left->  "0..*" Action 
ActionSimple "1..1" -up-> "0..*" Cours : coursList : <color:#428ecd>List</color><<color:#f69c3e>Cours</color>>

ActionComposee "1..1" - - -right- - -> "0..*" ActionSimple

Pourcentage .up. (ActionComposee, ActionSimple)

(Action, Portefeuille) .. Quantite

ActionSimple-down-|>Action
ActionComposee-down-|>Action

@enduml

PlantUML version 1.2022.7(Mon Aug 22 19:01:30 CEST 2022)
(GPL source distribution)
Java Runtime: Java(TM) SE Runtime Environment
JVM: Java HotSpot(TM) 64-Bit Server VM
Default Encoding: Cp1252
Language: fr
Country: FR
--></g></svg>